<svg id="logo" width="400" height="400" xmlns="http://www.w3.org/2000/svg">
    <rect x="4" y="4" width="392" height="392" fill="none" stroke="black" stroke-width="8" />

    <path d="M5,200 a1,1 0 0,0 392,0" fill="none" stroke="black" stroke-width="8" />
    <rect x="4" y="4" width="392" height="196" fill="none" stroke="black" stroke-width="8" />
    <polygon points="4 4, 400 400, 4 400" fill="none" stroke="black" stroke-width="8" />

    <path d="M 196,4 a1,1 0 0,0 0,196" fill="none" stroke="black" stroke-width="8" />
    <path d="M 200,400 a1,1 0 0,0 0,-200" fill="none" stroke="black" stroke-width="8" />
    <path fill="none" stroke="black" stroke-width="8" d="M196,396 a100,100 0 0,1 -96,-96" />
    <path fill="none" stroke="black" stroke-width="8" d="M196,4 a100,100 0 0,1 96,96" />
</svg>